<svg width="74" height="83" viewBox="0 0 74 83" fill="none" xmlns="http://www.w3.org/2000/svg">
<path d="M3.26831 12.8497L37.0169 3L70.7317 12.8497V33.0475C70.7315 43.3988 67.4741 53.4876 61.4211 61.8846C55.368 70.2816 46.8261 76.5611 37.0056 79.8333C27.1821 76.5615 18.6374 70.2812 12.5822 61.8824C6.527 53.4835 3.26846 43.3921 3.26831 33.0381V12.8497Z" stroke="white" stroke-width="6" stroke-linejoin="round"/>
<path d="M37.225 19.641C49.024 19.641 58.5884 29.3061 58.5884 41.2293C58.5884 53.1525 49.024 62.8176 37.225 62.8176C25.426 62.8176 15.8616 53.1525 15.8616 41.2293C15.8616 29.3061 25.426 19.641 37.225 19.641ZM40.8205 49.7567C38.4256 49.9001 36.0244 49.9001 33.6295 49.7567C33.9201 51.4535 34.2897 52.982 34.7191 54.2859C35.2574 55.918 35.8513 57.0837 36.4068 57.7961C36.5948 58.0336 36.8832 58.4999 37.2293 58.4999C37.539 58.4719 37.8744 58.0099 38.0411 57.7961C38.5965 57.0837 39.1926 55.918 39.7288 54.2859C40.204 52.8059 40.5703 51.2919 40.8205 49.7567ZM53.2753 47.1769C52.7092 47.423 52.1132 47.6496 51.4958 47.8569C49.6756 48.47 47.5478 48.9622 45.2149 49.3033C44.9227 51.4572 44.4437 53.5811 43.7836 55.6503C43.5785 56.2763 43.3542 56.8765 43.1106 57.4486C45.4398 56.5823 47.5551 55.2151 49.3101 53.4416C51.0651 51.6681 52.418 49.5306 53.2753 47.1769ZM21.1747 47.1769C22.0319 49.5306 23.3849 51.6681 25.1399 53.4416C26.8949 55.2151 29.0102 56.5823 31.3394 57.4486C31.0901 56.859 30.8656 56.259 30.6664 55.6503C30.0063 53.5811 29.5273 51.4572 29.2351 49.3033C27.1036 49.008 25.0019 48.524 22.9542 47.8569C22.3347 47.6496 21.7408 47.423 21.1747 47.1769ZM33.1061 37.0671C32.8984 39.8379 32.8984 42.6207 33.1061 45.3915C35.8449 45.6009 38.6051 45.6009 41.3439 45.3915C41.5515 42.6207 41.5515 39.8379 41.3439 37.0671C38.6019 36.8572 35.8481 36.8572 33.1061 37.0671ZM45.6635 37.596C45.8055 40.0161 45.8055 42.4425 45.6635 44.8626C47.1827 44.6091 48.6809 44.2411 50.1456 43.7616C51.7607 43.2176 52.9143 42.6174 53.6193 42.0561C53.8543 41.8683 54.3157 41.5725 54.3157 41.225C54.2879 40.9119 53.8308 40.573 53.6193 40.4046C52.9143 39.8433 51.7607 39.241 50.1456 38.6991C48.6809 38.2196 47.1827 37.8494 45.6635 37.596ZM28.7864 37.596C27.1073 37.8896 25.5969 38.2631 24.3044 38.697C22.6893 39.241 21.5378 39.8412 20.8307 40.4025C20.318 40.8126 20.1642 41.1213 20.1407 41.1969C20.0445 41.5207 20.632 41.8942 20.8307 42.054C21.5357 42.6153 22.6893 43.2176 24.3044 43.7594C25.5969 44.1955 27.1073 44.569 28.7864 44.8604C28.6445 42.4418 28.6445 40.0146 28.7864 37.596ZM31.3394 25.01C29.0102 25.8764 26.895 27.2437 25.14 29.0171C23.385 30.7906 22.0321 32.928 21.1747 35.2817C21.7408 35.0356 22.3368 34.8089 22.9542 34.6017C25.0019 33.9346 27.1036 33.4506 29.2351 33.1553C29.5726 30.7978 30.0597 28.6476 30.6664 26.8083C30.8715 26.1822 31.0958 25.5821 31.3394 25.01ZM43.1106 25.01C43.3542 25.5821 43.5785 26.1844 43.7836 26.8083C44.3903 28.6476 44.8774 30.7978 45.2149 33.1553C47.5478 33.4964 49.6756 33.9886 51.4958 34.6017C52.1153 34.8089 52.7092 35.0356 53.2753 35.2817C52.418 32.928 51.0651 30.7905 49.3101 29.017C47.5551 27.2435 45.4398 25.8763 43.1106 25.01ZM37.225 23.9586C36.928 23.9586 36.5584 24.4703 36.4089 24.6624C35.8535 25.3748 35.2574 26.5406 34.7212 28.1727C34.2467 29.6528 33.8825 31.1668 33.6317 32.7019C36.0251 32.5585 38.4249 32.5585 40.8183 32.7019C40.5675 31.1668 40.2033 29.6528 39.7288 28.1727C39.1926 26.5406 38.5965 25.377 38.0411 24.6624C37.8915 24.4681 37.5241 23.9586 37.225 23.9586Z" fill="white"/>
</svg>
