<svg width="72" height="83" viewBox="0 0 72 83" fill="none" xmlns="http://www.w3.org/2000/svg">
<path fill-rule="evenodd" clip-rule="evenodd" d="M68.6536 35.8049C68.6536 63.1442 41.298 79.5467 35.8268 79.5467C30.3557 79.5467 3 63.1442 3 35.8049C3.00435 27.1021 6.46498 18.7572 12.6209 12.6054C18.7768 6.45361 27.1239 2.99855 35.8268 3C53.9527 3 68.6536 17.69 68.6536 35.8049Z" stroke="white" stroke-width="6" stroke-linecap="square"/>
<path d="M49.1635 38.4123L38.5391 49.0841C37.8347 49.7913 36.8794 50.1886 35.8834 50.1886C34.8874 50.1886 33.9322 49.7913 33.2278 49.0841L22.6033 38.4142C21.725 37.5398 21.0274 36.4999 20.5504 35.3541C20.0734 34.2082 19.8265 32.9791 19.8238 31.7371C19.821 30.4952 20.0626 29.265 20.5346 28.1171C21.0066 26.9691 21.6997 25.9261 22.5742 25.048C23.4486 24.1698 24.4871 23.4737 25.6302 22.9997C26.7732 22.5257 27.9982 22.2831 29.2348 22.2858C30.4715 22.2885 31.6954 22.5365 32.8364 23.0155C33.9773 23.4946 35.0128 24.1952 35.8834 25.0772C37.6518 23.3455 40.0283 22.3832 42.4982 22.3987C44.968 22.4143 47.3324 23.4064 49.079 25.1603C50.8256 26.9141 51.8139 29.2884 51.8297 31.7688C51.8455 34.2493 50.8876 36.6361 49.1635 38.4123Z" stroke="white" stroke-width="6" stroke-linecap="round" stroke-linejoin="round"/>
</svg>
