<svg width="83" height="83" viewBox="0 0 83 83" fill="none" xmlns="http://www.w3.org/2000/svg">
<path d="M3 56.9C3 46.0122 3 40.5644 6.38415 37.1841C9.76445 33.8 15.2122 33.8 26.1 33.8H56.9C67.7878 33.8 73.2355 33.8 76.6158 37.1841C80 40.5644 80 46.0122 80 56.9C80 67.7878 80 73.2355 76.6158 76.6158C73.2355 80 67.7878 80 56.9 80H26.1C15.2122 80 9.76445 80 6.38415 76.6158C3 73.2355 3 67.7878 3 56.9Z" stroke="white" stroke-width="6"/>
<path d="M18.3999 33.8V26.1C18.3999 19.9735 20.8336 14.0979 25.1657 9.76583C29.4978 5.43374 35.3734 3 41.4999 3C47.6264 3 53.502 5.43374 57.8341 9.76583C62.1662 14.0979 64.5999 19.9735 64.5999 26.1V33.8" stroke="white" stroke-width="6" stroke-linecap="round"/>
<path d="M26.1001 56.9H26.1347M41.4654 56.9H41.5001M56.8654 56.9H56.9001" stroke="white" stroke-width="6" stroke-linecap="round" stroke-linejoin="round"/>
</svg>
