<svg width="77" height="77" viewBox="0 0 77 77" fill="none" xmlns="http://www.w3.org/2000/svg">
<path fill-rule="evenodd" clip-rule="evenodd" d="M47.0714 6.50785C38.6991 4.252 29.7754 5.38129 22.229 9.65163C21.9215 9.83465 21.5805 9.95435 21.226 10.0037C20.8716 10.0531 20.5108 10.0311 20.165 9.93903C19.8192 9.847 19.4952 9.68677 19.2122 9.46776C18.9292 9.24875 18.6928 8.97538 18.5169 8.66371C18.341 8.35204 18.2292 8.00837 18.188 7.65287C18.1468 7.29738 18.1771 6.93724 18.2771 6.59363C18.3771 6.25001 18.5448 5.92984 18.7702 5.65193C18.9957 5.37403 19.2745 5.14399 19.5901 4.97534C28.3615 0.0128172 38.7329 -1.30033 48.4643 1.31953C68.9956 6.82294 81.184 27.9271 75.677 48.462C70.1772 68.9968 49.073 81.1817 28.5381 75.6783C8.00319 70.1784 -4.18168 49.0707 1.32174 28.5358C2.37822 24.5761 4.06086 20.8107 6.30598 17.3822C8.36126 14.2491 12.5076 14.0057 15.1322 16.129L40.1894 36.4132C40.7431 36.8614 41.096 37.5112 41.1705 38.2196C41.2451 38.9281 41.0351 39.6371 40.5869 40.1907C40.1387 40.7444 39.4889 41.0973 38.7804 41.1718C38.072 41.2464 37.363 41.0364 36.8093 40.5882L22.3436 28.8796C20.0897 32.6679 19.2388 37.1279 19.9396 41.48C20.6404 45.832 22.8484 49.7994 26.1777 52.6887C29.507 55.5779 33.7457 57.2053 38.1531 57.2864C42.5605 57.3674 46.8563 55.897 50.2895 53.1321C53.7228 50.3672 56.0751 46.4837 56.9355 42.1603C57.7959 37.837 57.1096 33.3487 54.9965 29.4801C52.8833 25.6114 49.4779 22.6084 45.3752 20.9959C41.2726 19.3834 36.7337 19.2639 32.552 20.6585C32.2149 20.7797 31.857 20.8323 31.4994 20.8132C31.1417 20.794 30.7915 20.7035 30.4693 20.547C30.1471 20.3905 29.8595 20.1711 29.6234 19.9017C29.3873 19.6324 29.2075 19.3185 29.0945 18.9786C28.9816 18.6387 28.9377 18.2796 28.9656 17.9226C28.9935 17.5655 29.0925 17.2175 29.2568 16.8993C29.4212 16.5811 29.6475 16.2989 29.9226 16.0694C30.1976 15.84 30.5158 15.6679 30.8583 15.5632C36.2667 13.7608 42.138 13.9281 47.4349 16.0356C52.7319 18.1431 57.1134 22.055 59.8052 27.0802C62.497 32.1055 63.3259 37.9204 62.1453 43.4976C60.9648 49.0748 57.8508 54.0552 53.3537 57.5587C48.8566 61.0622 43.2658 62.8634 37.5692 62.6438C31.8727 62.4243 26.4371 60.1982 22.223 56.359C18.0088 52.5197 15.2874 47.3145 14.5396 41.663C13.7918 36.0115 15.0658 30.2775 18.1364 25.4744L11.7521 20.304C11.6692 20.2347 11.5733 20.1825 11.47 20.1505C11.3667 20.1186 11.2582 20.1074 11.1506 20.1178C11.0791 20.1228 11.0098 20.1446 10.9482 20.1813C10.8866 20.2179 10.8345 20.2686 10.7961 20.329C8.86399 23.2787 7.41585 26.5183 6.50649 29.9251C4.81079 36.2524 5.02939 42.9403 7.13464 49.1434C9.23989 55.3464 13.1372 60.7858 18.3339 64.7739C23.5305 68.762 29.793 71.1195 36.3295 71.5485C42.866 71.9774 49.3829 70.4585 55.0561 67.1838C60.7293 63.909 65.3041 59.0255 68.202 53.1508C71.0998 47.2761 72.1905 40.6741 71.3362 34.1795C70.482 27.6849 67.721 21.5894 63.4026 16.6639C59.0841 11.7385 53.4021 8.20411 47.075 6.50785H47.0714Z" fill="white"/>
</svg>
