<svg width="83" height="83" viewBox="0 0 83 83" fill="none" xmlns="http://www.w3.org/2000/svg">
<path d="M68.4369 68.4369C83.4059 53.468 83.4059 29.1957 68.4369 14.2267C53.468 -0.742237 29.1957 -0.742237 14.2267 14.2267C-0.742236 29.1957 -0.742236 53.468 14.2267 68.4369M57.5945 57.5945C66.5778 48.6131 66.5778 34.0505 57.5945 25.0691C48.6131 16.0859 34.0505 16.0859 25.0691 25.0691C16.0859 34.0505 16.0859 48.6131 25.0691 57.5945" stroke="white" stroke-width="6" stroke-linecap="round" stroke-linejoin="round"/>
<path d="M41.3316 48.9984C43.3649 48.9984 45.3149 48.1906 46.7527 46.7529C48.1904 45.3151 48.9981 43.3651 48.9981 41.3318C48.9981 39.2985 48.1904 37.3485 46.7527 35.9107C45.3149 34.473 43.3649 33.6653 41.3316 33.6653C39.2983 33.6653 37.3483 34.473 35.9105 35.9107C34.4728 37.3485 33.665 39.2985 33.665 41.3318C33.665 43.3651 34.4728 45.3151 35.9105 46.7529C37.3483 48.1906 39.2983 48.9984 41.3316 48.9984ZM41.3316 48.9984V79.6646M41.3316 79.6646H48.9981M41.3316 79.6646H33.665" stroke="white" stroke-width="6" stroke-linecap="round" stroke-linejoin="round"/>
</svg>
