<svg width="30" height="24" viewBox="0 0 30 24" fill="none" xmlns="http://www.w3.org/2000/svg">
<path d="M27 1.50402e-07C27.7569 -0.000239369 28.4858 0.28561 29.0408 0.800245C29.5958 1.31488 29.9357 2.02027 29.9925 2.775L30 3V21C30.0002 21.7569 29.7144 22.4858 29.1998 23.0408C28.6851 23.5958 27.9797 23.9357 27.225 23.9925L27 24H3C2.24314 24.0002 1.51415 23.7144 0.959178 23.1998C0.404206 22.6851 0.0642651 21.9797 0.00750032 21.225L1.50402e-07 21V3C-0.000239369 2.24314 0.28561 1.51415 0.800245 0.959178C1.31488 0.404206 2.02027 0.0642651 2.775 0.00750032L3 1.50402e-07H27ZM27 5.121L16.59 15.531C16.1681 15.9524 15.5963 16.189 15 16.189C14.4037 16.189 13.8319 15.9524 13.41 15.531L3 5.121V21H27V5.121ZM24.879 3H5.121L15 12.879L24.879 3Z" fill="#757575"/>
</svg>
