<svg width="157" height="25" viewBox="0 0 157 25" fill="none" xmlns="http://www.w3.org/2000/svg">
<rect width="25" height="25" rx="12.5" fill="url(#paint0_radial_3_15)"/>
<path d="M12.7216 7.16882C12.5786 7.11559 12.4214 7.11559 12.2784 7.16882L8.5675 8.55104C8.31906 8.64358 8.1543 8.88077 8.1543 9.14588V11.9908C8.1543 14.6596 9.93137 17.1524 12.3473 17.8367C12.4471 17.8649 12.5529 17.865 12.6527 17.8367C15.0686 17.1524 16.8457 14.6596 16.8457 11.9908V9.14588C16.8457 8.88077 16.6809 8.64358 16.4325 8.55104L12.7216 7.16882ZM15.7593 11.9908C15.7593 14.0736 14.4692 16.0056 12.6947 16.6861C12.5693 16.7341 12.4307 16.7341 12.3053 16.6861C10.5308 16.006 9.24072 14.0788 9.24072 11.9908V9.89586C9.24072 9.63075 9.40549 9.39355 9.65393 9.30102L12.2784 8.32346C12.4214 8.27023 12.5786 8.27023 12.7216 8.32346L15.3461 9.30102C15.5945 9.39355 15.7593 9.63075 15.7593 9.89586V11.9908Z" fill="#F5F5F5"/>
<path d="M12.518 10.6019C12.8139 10.6053 13.0822 10.6612 13.3231 10.7697C13.5639 10.8747 13.7583 11.0171 13.9063 11.1967C14.0542 11.3729 14.166 11.5712 14.2417 11.7915C14.3208 12.0083 14.3587 12.2354 14.3553 12.4726C14.3518 12.7099 14.3122 12.9369 14.2366 13.1538C14.1609 13.3673 14.049 13.5622 13.9011 13.7384C13.7566 13.9113 13.5639 14.0502 13.3231 14.1553C13.0822 14.2603 12.8087 14.3129 12.5025 14.3129C12.1963 14.3129 11.921 14.262 11.6767 14.1604C11.4359 14.0587 11.2415 13.9214 11.0935 13.7486C10.9456 13.5724 10.8338 13.3775 10.7581 13.164C10.6824 12.9471 10.6445 12.7183 10.6445 12.4777C10.6445 11.9253 10.8234 11.4746 11.1813 11.1255C11.5391 10.7765 11.9847 10.6019 12.518 10.6019ZM11.3155 12.4879C11.3258 12.82 11.4273 13.1047 11.62 13.3419C11.8161 13.5791 12.1102 13.6978 12.5025 13.6978C12.8947 13.6978 13.1872 13.5791 13.3798 13.3419C13.576 13.1013 13.6774 12.8149 13.6843 12.4828C13.6912 12.1507 13.5949 11.8575 13.3953 11.6034C13.1958 11.3492 12.9033 11.2187 12.518 11.2119C12.1429 11.2119 11.8453 11.3339 11.6251 11.5779C11.4084 11.822 11.3051 12.1253 11.3155 12.4879Z" fill="#F5F5F5"/>
<mask id="path-3-outside-1_3_15" maskUnits="userSpaceOnUse" x="40" y="4" width="117" height="18" fill="black">
<rect fill="white" x="40" y="4" width="117" height="18"/>
<path d="M48.6262 20.4973C48.2882 20.6284 47.8727 20.745 47.3798 20.847C46.9009 20.949 46.3799 21 45.8165 21C45.2532 21 44.7814 20.9781 44.4011 20.9344C44.035 20.9053 43.704 20.8397 43.4083 20.7377C43.1125 20.6211 42.852 20.5118 42.6266 20.4098C42.4013 20.3078 42.1971 20.133 42.014 19.8852C41.845 19.6375 41.7042 19.4262 41.5915 19.2514C41.4788 19.0765 41.3803 18.7923 41.2958 18.3989C41.2253 18.0055 41.169 17.6776 41.1268 17.4153C41.0845 17.1384 41.0563 16.7158 41.0423 16.1475C41.0141 15.0401 41 13.9982 41 13.0219C41 12.0455 41.007 11.3097 41.0211 10.8142C41.0352 10.3188 41.0634 9.72131 41.1056 9.02186C41.162 8.3224 41.2535 7.82696 41.3803 7.53552C41.507 7.22951 41.676 6.88707 41.8873 6.5082C42.0985 6.11475 42.3731 5.84517 42.7111 5.69945C43.6125 5.34973 44.5631 5.17486 45.563 5.17486C46.5629 5.17486 47.3516 5.28415 47.929 5.50273C48.5205 5.70674 48.9853 5.95446 49.3233 6.2459C49.6613 6.53734 49.9007 7.0765 50.0415 7.86339C50.1965 8.65027 50.288 9.3643 50.3162 10.0055C50.3443 10.6466 50.3584 11.5865 50.3584 12.8251C50.3584 14.0492 50.3514 14.9089 50.3373 15.4044C50.3232 15.8998 50.288 16.4973 50.2317 17.1967C50.1894 17.8962 50.1049 18.3989 49.9782 18.7049C49.8514 18.9964 49.6824 19.3315 49.4712 19.7104C49.2599 20.0893 48.9782 20.3515 48.6262 20.4973ZM48.5205 16.5191V9.65574C48.5205 8.48998 48.4008 7.78324 48.1614 7.53552C47.8093 7.14208 47.422 6.90892 46.9995 6.83607C46.5911 6.76321 46.1545 6.72678 45.6898 6.72678C45.225 6.72678 44.8236 6.75592 44.4856 6.81421C44.1476 6.8725 43.873 6.9745 43.6618 7.12022C43.4646 7.26594 43.3026 7.40437 43.1759 7.53552C43.0632 7.66667 42.9787 7.87067 42.9224 8.14754C42.866 8.49727 42.8379 9 42.8379 9.65574V16.5191C42.8379 17.6849 42.9505 18.3916 43.1759 18.6393C43.5421 19.0328 43.9364 19.2659 44.3589 19.3388C44.7814 19.4117 45.225 19.4481 45.6898 19.4481C46.1545 19.4481 46.5489 19.4189 46.8728 19.3607C47.2108 19.3024 47.4784 19.2004 47.6755 19.0546C47.8868 18.9089 48.0487 18.7705 48.1614 18.6393C48.2882 18.5082 48.3727 18.3042 48.4149 18.0273C48.4853 17.6776 48.5205 17.1749 48.5205 16.5191Z"/>
<path d="M61.5394 12.7377V20.7377H59.8071V12.4973C59.8071 11.7832 59.7015 11.2805 59.4902 10.9891C59.279 10.6976 58.772 10.5519 57.9692 10.5519C57.1805 10.5519 56.6454 10.7195 56.3637 11.0546C56.082 11.3752 55.9412 11.8415 55.9412 12.4536V20.7377H54.209V9.37158H55.1596L55.4342 10.4426C55.7018 10.0492 56.0539 9.75045 56.4905 9.54645C56.927 9.32787 57.2862 9.20401 57.5678 9.17486C57.8636 9.14572 58.272 9.13115 58.7931 9.13115C59.3283 9.13115 59.793 9.22587 60.1874 9.4153C60.5817 9.60474 60.8704 9.8816 61.0535 10.2459C61.3774 10.8725 61.5394 11.7031 61.5394 12.7377Z"/>
<path d="M67.2242 20.7377H65.4919V5H67.2242V20.7377Z"/>
<path d="M71.3904 9.37158H73.1227V20.7377H71.3904V9.37158ZM71.7918 5.08743C71.8904 5.07286 72.0453 5.06557 72.2565 5.06557C72.4678 5.06557 72.6227 5.07286 72.7213 5.08743C72.8199 5.102 72.9255 5.14572 73.0382 5.21858C73.2494 5.32058 73.355 5.57559 73.355 5.98361C73.355 6.37705 73.3339 6.65392 73.2917 6.81421C73.2494 6.95993 73.1649 7.06922 73.0382 7.14208C72.9255 7.20036 72.8199 7.23679 72.7213 7.25137C72.6227 7.26594 72.4678 7.27322 72.2565 7.27322C72.0453 7.27322 71.8904 7.26594 71.7918 7.25137C71.6932 7.23679 71.5876 7.20036 71.4749 7.14208C71.2637 7.0255 71.158 6.77049 71.158 6.37705C71.158 5.96903 71.1792 5.69217 71.2214 5.54645C71.2637 5.38616 71.3411 5.27687 71.4538 5.21858C71.5805 5.14572 71.6932 5.102 71.7918 5.08743Z"/>
<path d="M84.6193 12.7377V20.7377H82.8871V12.4973C82.8871 11.7832 82.7815 11.2805 82.5702 10.9891C82.359 10.6976 81.852 10.5519 81.0492 10.5519C80.2605 10.5519 79.7254 10.7195 79.4437 11.0546C79.162 11.3752 79.0212 11.8415 79.0212 12.4536V20.7377H77.2889V9.37158H78.2396L78.5142 10.4426C78.7818 10.0492 79.1339 9.75045 79.5704 9.54645C80.007 9.32787 80.3662 9.20401 80.6478 9.17486C80.9436 9.14572 81.352 9.13115 81.8731 9.13115C82.4082 9.13115 82.873 9.22587 83.2673 9.4153C83.6617 9.60474 83.9504 9.8816 84.1335 10.2459C84.4574 10.8725 84.6193 11.7031 84.6193 12.7377Z"/>
<path d="M90.0084 12.4754V14.7268C91.4449 14.7268 92.2969 14.6758 92.5645 14.5738C92.8462 14.4572 93.0926 14.3406 93.3039 14.224C93.6841 14.02 93.8743 13.6193 93.8743 13.0219V12.5191C93.8743 11.8051 93.7686 11.3024 93.5574 11.0109C93.3461 10.7195 92.8391 10.5738 92.0364 10.5738C91.2477 10.5738 90.7125 10.7413 90.4309 11.0765C90.1492 11.3971 90.0084 11.8634 90.0084 12.4754ZM90.1985 9.4153C90.4379 9.29873 90.7125 9.22587 91.0224 9.19672C91.3322 9.15301 91.7688 9.13115 92.3321 9.13115C92.9096 9.13115 93.4447 9.21129 93.9376 9.37158C94.4306 9.53188 94.7897 9.78689 95.015 10.1366C95.2544 10.4718 95.4094 10.8215 95.4798 11.1858C95.5643 11.5355 95.6065 11.9435 95.6065 12.4098C95.6065 12.8616 95.5784 13.2404 95.522 13.5464C95.4657 13.8379 95.3953 14.0929 95.3108 14.3115C95.2404 14.5301 95.1136 14.7268 94.9305 14.9016C94.7615 15.0619 94.5996 15.2004 94.4446 15.3169C94.3038 15.4335 94.0855 15.5355 93.7898 15.623C93.5081 15.6958 93.2616 15.7541 93.0504 15.7978C92.8391 15.8415 92.5363 15.878 92.142 15.9071C91.5505 15.9508 90.8393 15.9727 90.0084 15.9727V17.612C90.0084 18.3698 90.1633 18.8871 90.4731 19.1639C90.783 19.4262 91.2548 19.5574 91.8885 19.5574C93.0574 19.5574 94.1066 19.3534 95.0361 18.9454L95.3741 20.0383C94.3179 20.6794 93.149 21 91.8674 21C91.1914 21 90.6421 20.9199 90.2196 20.7596C89.8112 20.6138 89.5155 20.4463 89.3324 20.2568C89.1634 20.0674 89.0155 19.8925 88.8887 19.7322C88.762 19.5719 88.6564 19.3388 88.5719 19.0328C88.5015 18.7268 88.4451 18.4645 88.4029 18.2459C88.3606 18.0128 88.3325 17.6922 88.3184 17.2842C88.2761 16.5847 88.255 15.929 88.255 15.3169V14.0055C88.255 13.2332 88.2832 12.6794 88.3395 12.3443C88.3958 12.0091 88.4522 11.6958 88.5085 11.4044C88.5648 11.0984 88.6423 10.8725 88.7409 10.7268C88.8395 10.5665 88.9521 10.3843 89.0789 10.1803C89.2197 9.97632 89.3817 9.82332 89.5648 9.72131C89.7619 9.61931 89.9732 9.5173 90.1985 9.4153Z"/>
<path d="M111.969 16.5628C111.969 17.9326 111.652 19.0182 111.018 19.8197C110.384 20.6066 109.342 21 107.892 21C106.455 21 105.138 20.7304 103.941 20.1913L104.321 18.8361C105.448 19.2441 106.603 19.4481 107.786 19.4481C108.617 19.4481 109.222 19.2368 109.603 18.8142C109.997 18.3916 110.194 17.7432 110.194 16.8689C110.194 15.9945 110.089 15.3315 109.877 14.8798C109.666 14.4281 109.222 14.1512 108.546 14.0492L106.455 13.7432C105.469 13.5829 104.807 13.1676 104.469 12.4973C104.145 11.827 103.983 10.8142 103.983 9.45902C103.983 8.10382 104.321 7.05464 104.997 6.31148C105.688 5.55373 106.631 5.17486 107.828 5.17486C109.039 5.17486 110.251 5.40801 111.462 5.87432L111.081 7.18579C110.025 6.87978 109.068 6.72678 108.208 6.72678C107.363 6.72678 106.744 6.90892 106.349 7.27322C105.955 7.62295 105.758 8.28597 105.758 9.26229C105.758 10.2386 105.857 10.9381 106.054 11.3607C106.265 11.7832 106.68 12.0383 107.3 12.1257L109.286 12.4317C110.187 12.5774 110.856 12.9636 111.293 13.5902C111.743 14.2022 111.969 15.1931 111.969 16.5628Z"/>
<path d="M122.737 12.8689V20.7377H121.005V12.6284C121.005 11.9144 120.899 11.4117 120.688 11.1202C120.477 10.8288 119.97 10.6831 119.167 10.6831C118.378 10.6831 117.843 10.8506 117.561 11.1858C117.28 11.5064 117.139 11.9727 117.139 12.5847V20.7377H115.407V5H117.033V10.3552C117.695 9.62659 118.646 9.26229 119.885 9.26229C121.082 9.26229 121.871 9.63388 122.251 10.377C122.575 11.0036 122.737 11.8342 122.737 12.8689Z"/>
<path d="M126.689 9.37158H128.422V20.7377H126.689V9.37158ZM127.091 5.08743C127.189 5.07286 127.344 5.06557 127.556 5.06557C127.767 5.06557 127.922 5.07286 128.02 5.08743C128.119 5.102 128.225 5.14572 128.337 5.21858C128.548 5.32058 128.654 5.57559 128.654 5.98361C128.654 6.37705 128.633 6.65392 128.591 6.81421C128.548 6.95993 128.464 7.06922 128.337 7.14208C128.225 7.20036 128.119 7.23679 128.02 7.25137C127.922 7.26594 127.767 7.27322 127.556 7.27322C127.344 7.27322 127.189 7.26594 127.091 7.25137C126.992 7.23679 126.887 7.20036 126.774 7.14208C126.563 7.0255 126.457 6.77049 126.457 6.37705C126.457 5.96903 126.478 5.69217 126.52 5.54645C126.563 5.38616 126.64 5.27687 126.753 5.21858C126.88 5.14572 126.992 5.102 127.091 5.08743Z"/>
<path d="M134.024 12.4754V14.7268C135.461 14.7268 136.313 14.6758 136.581 14.5738C136.862 14.4572 137.109 14.3406 137.32 14.224C137.7 14.02 137.89 13.6193 137.89 13.0219V12.5191C137.89 11.8051 137.785 11.3024 137.573 11.0109C137.362 10.7195 136.855 10.5738 136.052 10.5738C135.264 10.5738 134.729 10.7413 134.447 11.0765C134.165 11.3971 134.024 11.8634 134.024 12.4754ZM134.215 9.4153C134.454 9.29873 134.729 9.22587 135.038 9.19672C135.348 9.15301 135.785 9.13115 136.348 9.13115C136.926 9.13115 137.461 9.21129 137.954 9.37158C138.447 9.53188 138.806 9.78689 139.031 10.1366C139.271 10.4718 139.425 10.8215 139.496 11.1858C139.58 11.5355 139.623 11.9435 139.623 12.4098C139.623 12.8616 139.594 13.2404 139.538 13.5464C139.482 13.8379 139.411 14.0929 139.327 14.3115C139.256 14.5301 139.13 14.7268 138.947 14.9016C138.778 15.0619 138.616 15.2004 138.461 15.3169C138.32 15.4335 138.102 15.5355 137.806 15.623C137.524 15.6958 137.278 15.7541 137.066 15.7978C136.855 15.8415 136.552 15.878 136.158 15.9071C135.567 15.9508 134.855 15.9727 134.024 15.9727V17.612C134.024 18.3698 134.179 18.8871 134.489 19.1639C134.799 19.4262 135.271 19.5574 135.905 19.5574C137.074 19.5574 138.123 19.3534 139.052 18.9454L139.39 20.0383C138.334 20.6794 137.165 21 135.883 21C135.207 21 134.658 20.9199 134.236 20.7596C133.827 20.6138 133.532 20.4463 133.348 20.2568C133.179 20.0674 133.032 19.8925 132.905 19.7322C132.778 19.5719 132.672 19.3388 132.588 19.0328C132.518 18.7268 132.461 18.4645 132.419 18.2459C132.377 18.0128 132.349 17.6922 132.334 17.2842C132.292 16.5847 132.271 15.929 132.271 15.3169V14.0055C132.271 13.2332 132.299 12.6794 132.356 12.3443C132.412 12.0091 132.468 11.6958 132.525 11.4044C132.581 11.0984 132.658 10.8725 132.757 10.7268C132.856 10.5665 132.968 10.3843 133.095 10.1803C133.236 9.97632 133.398 9.82332 133.581 9.72131C133.778 9.61931 133.989 9.5173 134.215 9.4153Z"/>
<path d="M144.778 20.7377H143.046V5H144.778V20.7377Z"/>
<path d="M154.268 17.6776V10.9016C153.493 10.7413 152.768 10.6612 152.092 10.6612C151.43 10.6612 150.979 10.7996 150.74 11.0765C150.515 11.3534 150.402 11.8998 150.402 12.7158V17.6339C150.402 18.3479 150.507 18.8506 150.719 19.1421C150.93 19.4335 151.43 19.5792 152.219 19.5792C153.021 19.5792 153.564 19.4189 153.845 19.0984C154.127 18.7632 154.268 18.2896 154.268 17.6776ZM148.627 15.929C148.627 14.1075 148.656 13.0073 148.712 12.6284C148.768 12.235 148.825 11.8852 148.881 11.5792C148.937 11.2587 149.008 11.0182 149.092 10.8579C149.191 10.6831 149.303 10.4936 149.43 10.2896C149.571 10.0856 149.726 9.9326 149.895 9.8306C150.078 9.7286 150.282 9.62659 150.507 9.52459C150.916 9.34973 151.507 9.26229 152.282 9.26229C153.057 9.26229 153.754 9.35701 154.373 9.54645V5H156V20.7377H155.049L154.775 19.6667C154.507 20.0601 154.155 20.3661 153.718 20.5847C153.296 20.7887 152.93 20.9053 152.62 20.9344C152.324 20.9781 151.958 21 151.521 21C150.338 21 149.557 20.6138 149.177 19.8415C148.81 19.0546 148.627 17.7505 148.627 15.929Z"/>
</mask>
<path d="M48.6262 20.4973C48.2882 20.6284 47.8727 20.745 47.3798 20.847C46.9009 20.949 46.3799 21 45.8165 21C45.2532 21 44.7814 20.9781 44.4011 20.9344C44.035 20.9053 43.704 20.8397 43.4083 20.7377C43.1125 20.6211 42.852 20.5118 42.6266 20.4098C42.4013 20.3078 42.1971 20.133 42.014 19.8852C41.845 19.6375 41.7042 19.4262 41.5915 19.2514C41.4788 19.0765 41.3803 18.7923 41.2958 18.3989C41.2253 18.0055 41.169 17.6776 41.1268 17.4153C41.0845 17.1384 41.0563 16.7158 41.0423 16.1475C41.0141 15.0401 41 13.9982 41 13.0219C41 12.0455 41.007 11.3097 41.0211 10.8142C41.0352 10.3188 41.0634 9.72131 41.1056 9.02186C41.162 8.3224 41.2535 7.82696 41.3803 7.53552C41.507 7.22951 41.676 6.88707 41.8873 6.5082C42.0985 6.11475 42.3731 5.84517 42.7111 5.69945C43.6125 5.34973 44.5631 5.17486 45.563 5.17486C46.5629 5.17486 47.3516 5.28415 47.929 5.50273C48.5205 5.70674 48.9853 5.95446 49.3233 6.2459C49.6613 6.53734 49.9007 7.0765 50.0415 7.86339C50.1965 8.65027 50.288 9.3643 50.3162 10.0055C50.3443 10.6466 50.3584 11.5865 50.3584 12.8251C50.3584 14.0492 50.3514 14.9089 50.3373 15.4044C50.3232 15.8998 50.288 16.4973 50.2317 17.1967C50.1894 17.8962 50.1049 18.3989 49.9782 18.7049C49.8514 18.9964 49.6824 19.3315 49.4712 19.7104C49.2599 20.0893 48.9782 20.3515 48.6262 20.4973ZM48.5205 16.5191V9.65574C48.5205 8.48998 48.4008 7.78324 48.1614 7.53552C47.8093 7.14208 47.422 6.90892 46.9995 6.83607C46.5911 6.76321 46.1545 6.72678 45.6898 6.72678C45.225 6.72678 44.8236 6.75592 44.4856 6.81421C44.1476 6.8725 43.873 6.9745 43.6618 7.12022C43.4646 7.26594 43.3026 7.40437 43.1759 7.53552C43.0632 7.66667 42.9787 7.87067 42.9224 8.14754C42.866 8.49727 42.8379 9 42.8379 9.65574V16.5191C42.8379 17.6849 42.9505 18.3916 43.1759 18.6393C43.5421 19.0328 43.9364 19.2659 44.3589 19.3388C44.7814 19.4117 45.225 19.4481 45.6898 19.4481C46.1545 19.4481 46.5489 19.4189 46.8728 19.3607C47.2108 19.3024 47.4784 19.2004 47.6755 19.0546C47.8868 18.9089 48.0487 18.7705 48.1614 18.6393C48.2882 18.5082 48.3727 18.3042 48.4149 18.0273C48.4853 17.6776 48.5205 17.1749 48.5205 16.5191Z" fill="white"/>
<path d="M61.5394 12.7377V20.7377H59.8071V12.4973C59.8071 11.7832 59.7015 11.2805 59.4902 10.9891C59.279 10.6976 58.772 10.5519 57.9692 10.5519C57.1805 10.5519 56.6454 10.7195 56.3637 11.0546C56.082 11.3752 55.9412 11.8415 55.9412 12.4536V20.7377H54.209V9.37158H55.1596L55.4342 10.4426C55.7018 10.0492 56.0539 9.75045 56.4905 9.54645C56.927 9.32787 57.2862 9.20401 57.5678 9.17486C57.8636 9.14572 58.272 9.13115 58.7931 9.13115C59.3283 9.13115 59.793 9.22587 60.1874 9.4153C60.5817 9.60474 60.8704 9.8816 61.0535 10.2459C61.3774 10.8725 61.5394 11.7031 61.5394 12.7377Z" fill="white"/>
<path d="M67.2242 20.7377H65.4919V5H67.2242V20.7377Z" fill="white"/>
<path d="M71.3904 9.37158H73.1227V20.7377H71.3904V9.37158ZM71.7918 5.08743C71.8904 5.07286 72.0453 5.06557 72.2565 5.06557C72.4678 5.06557 72.6227 5.07286 72.7213 5.08743C72.8199 5.102 72.9255 5.14572 73.0382 5.21858C73.2494 5.32058 73.355 5.57559 73.355 5.98361C73.355 6.37705 73.3339 6.65392 73.2917 6.81421C73.2494 6.95993 73.1649 7.06922 73.0382 7.14208C72.9255 7.20036 72.8199 7.23679 72.7213 7.25137C72.6227 7.26594 72.4678 7.27322 72.2565 7.27322C72.0453 7.27322 71.8904 7.26594 71.7918 7.25137C71.6932 7.23679 71.5876 7.20036 71.4749 7.14208C71.2637 7.0255 71.158 6.77049 71.158 6.37705C71.158 5.96903 71.1792 5.69217 71.2214 5.54645C71.2637 5.38616 71.3411 5.27687 71.4538 5.21858C71.5805 5.14572 71.6932 5.102 71.7918 5.08743Z" fill="white"/>
<path d="M84.6193 12.7377V20.7377H82.8871V12.4973C82.8871 11.7832 82.7815 11.2805 82.5702 10.9891C82.359 10.6976 81.852 10.5519 81.0492 10.5519C80.2605 10.5519 79.7254 10.7195 79.4437 11.0546C79.162 11.3752 79.0212 11.8415 79.0212 12.4536V20.7377H77.2889V9.37158H78.2396L78.5142 10.4426C78.7818 10.0492 79.1339 9.75045 79.5704 9.54645C80.007 9.32787 80.3662 9.20401 80.6478 9.17486C80.9436 9.14572 81.352 9.13115 81.8731 9.13115C82.4082 9.13115 82.873 9.22587 83.2673 9.4153C83.6617 9.60474 83.9504 9.8816 84.1335 10.2459C84.4574 10.8725 84.6193 11.7031 84.6193 12.7377Z" fill="white"/>
<path d="M90.0084 12.4754V14.7268C91.4449 14.7268 92.2969 14.6758 92.5645 14.5738C92.8462 14.4572 93.0926 14.3406 93.3039 14.224C93.6841 14.02 93.8743 13.6193 93.8743 13.0219V12.5191C93.8743 11.8051 93.7686 11.3024 93.5574 11.0109C93.3461 10.7195 92.8391 10.5738 92.0364 10.5738C91.2477 10.5738 90.7125 10.7413 90.4309 11.0765C90.1492 11.3971 90.0084 11.8634 90.0084 12.4754ZM90.1985 9.4153C90.4379 9.29873 90.7125 9.22587 91.0224 9.19672C91.3322 9.15301 91.7688 9.13115 92.3321 9.13115C92.9096 9.13115 93.4447 9.21129 93.9376 9.37158C94.4306 9.53188 94.7897 9.78689 95.015 10.1366C95.2544 10.4718 95.4094 10.8215 95.4798 11.1858C95.5643 11.5355 95.6065 11.9435 95.6065 12.4098C95.6065 12.8616 95.5784 13.2404 95.522 13.5464C95.4657 13.8379 95.3953 14.0929 95.3108 14.3115C95.2404 14.5301 95.1136 14.7268 94.9305 14.9016C94.7615 15.0619 94.5996 15.2004 94.4446 15.3169C94.3038 15.4335 94.0855 15.5355 93.7898 15.623C93.5081 15.6958 93.2616 15.7541 93.0504 15.7978C92.8391 15.8415 92.5363 15.878 92.142 15.9071C91.5505 15.9508 90.8393 15.9727 90.0084 15.9727V17.612C90.0084 18.3698 90.1633 18.8871 90.4731 19.1639C90.783 19.4262 91.2548 19.5574 91.8885 19.5574C93.0574 19.5574 94.1066 19.3534 95.0361 18.9454L95.3741 20.0383C94.3179 20.6794 93.149 21 91.8674 21C91.1914 21 90.6421 20.9199 90.2196 20.7596C89.8112 20.6138 89.5155 20.4463 89.3324 20.2568C89.1634 20.0674 89.0155 19.8925 88.8887 19.7322C88.762 19.5719 88.6564 19.3388 88.5719 19.0328C88.5015 18.7268 88.4451 18.4645 88.4029 18.2459C88.3606 18.0128 88.3325 17.6922 88.3184 17.2842C88.2761 16.5847 88.255 15.929 88.255 15.3169V14.0055C88.255 13.2332 88.2832 12.6794 88.3395 12.3443C88.3958 12.0091 88.4522 11.6958 88.5085 11.4044C88.5648 11.0984 88.6423 10.8725 88.7409 10.7268C88.8395 10.5665 88.9521 10.3843 89.0789 10.1803C89.2197 9.97632 89.3817 9.82332 89.5648 9.72131C89.7619 9.61931 89.9732 9.5173 90.1985 9.4153Z" fill="white"/>
<path d="M111.969 16.5628C111.969 17.9326 111.652 19.0182 111.018 19.8197C110.384 20.6066 109.342 21 107.892 21C106.455 21 105.138 20.7304 103.941 20.1913L104.321 18.8361C105.448 19.2441 106.603 19.4481 107.786 19.4481C108.617 19.4481 109.222 19.2368 109.603 18.8142C109.997 18.3916 110.194 17.7432 110.194 16.8689C110.194 15.9945 110.089 15.3315 109.877 14.8798C109.666 14.4281 109.222 14.1512 108.546 14.0492L106.455 13.7432C105.469 13.5829 104.807 13.1676 104.469 12.4973C104.145 11.827 103.983 10.8142 103.983 9.45902C103.983 8.10382 104.321 7.05464 104.997 6.31148C105.688 5.55373 106.631 5.17486 107.828 5.17486C109.039 5.17486 110.251 5.40801 111.462 5.87432L111.081 7.18579C110.025 6.87978 109.068 6.72678 108.208 6.72678C107.363 6.72678 106.744 6.90892 106.349 7.27322C105.955 7.62295 105.758 8.28597 105.758 9.26229C105.758 10.2386 105.857 10.9381 106.054 11.3607C106.265 11.7832 106.68 12.0383 107.3 12.1257L109.286 12.4317C110.187 12.5774 110.856 12.9636 111.293 13.5902C111.743 14.2022 111.969 15.1931 111.969 16.5628Z" fill="white"/>
<path d="M122.737 12.8689V20.7377H121.005V12.6284C121.005 11.9144 120.899 11.4117 120.688 11.1202C120.477 10.8288 119.97 10.6831 119.167 10.6831C118.378 10.6831 117.843 10.8506 117.561 11.1858C117.28 11.5064 117.139 11.9727 117.139 12.5847V20.7377H115.407V5H117.033V10.3552C117.695 9.62659 118.646 9.26229 119.885 9.26229C121.082 9.26229 121.871 9.63388 122.251 10.377C122.575 11.0036 122.737 11.8342 122.737 12.8689Z" fill="white"/>
<path d="M126.689 9.37158H128.422V20.7377H126.689V9.37158ZM127.091 5.08743C127.189 5.07286 127.344 5.06557 127.556 5.06557C127.767 5.06557 127.922 5.07286 128.02 5.08743C128.119 5.102 128.225 5.14572 128.337 5.21858C128.548 5.32058 128.654 5.57559 128.654 5.98361C128.654 6.37705 128.633 6.65392 128.591 6.81421C128.548 6.95993 128.464 7.06922 128.337 7.14208C128.225 7.20036 128.119 7.23679 128.02 7.25137C127.922 7.26594 127.767 7.27322 127.556 7.27322C127.344 7.27322 127.189 7.26594 127.091 7.25137C126.992 7.23679 126.887 7.20036 126.774 7.14208C126.563 7.0255 126.457 6.77049 126.457 6.37705C126.457 5.96903 126.478 5.69217 126.52 5.54645C126.563 5.38616 126.64 5.27687 126.753 5.21858C126.88 5.14572 126.992 5.102 127.091 5.08743Z" fill="white"/>
<path d="M134.024 12.4754V14.7268C135.461 14.7268 136.313 14.6758 136.581 14.5738C136.862 14.4572 137.109 14.3406 137.32 14.224C137.7 14.02 137.89 13.6193 137.89 13.0219V12.5191C137.89 11.8051 137.785 11.3024 137.573 11.0109C137.362 10.7195 136.855 10.5738 136.052 10.5738C135.264 10.5738 134.729 10.7413 134.447 11.0765C134.165 11.3971 134.024 11.8634 134.024 12.4754ZM134.215 9.4153C134.454 9.29873 134.729 9.22587 135.038 9.19672C135.348 9.15301 135.785 9.13115 136.348 9.13115C136.926 9.13115 137.461 9.21129 137.954 9.37158C138.447 9.53188 138.806 9.78689 139.031 10.1366C139.271 10.4718 139.425 10.8215 139.496 11.1858C139.58 11.5355 139.623 11.9435 139.623 12.4098C139.623 12.8616 139.594 13.2404 139.538 13.5464C139.482 13.8379 139.411 14.0929 139.327 14.3115C139.256 14.5301 139.13 14.7268 138.947 14.9016C138.778 15.0619 138.616 15.2004 138.461 15.3169C138.32 15.4335 138.102 15.5355 137.806 15.623C137.524 15.6958 137.278 15.7541 137.066 15.7978C136.855 15.8415 136.552 15.878 136.158 15.9071C135.567 15.9508 134.855 15.9727 134.024 15.9727V17.612C134.024 18.3698 134.179 18.8871 134.489 19.1639C134.799 19.4262 135.271 19.5574 135.905 19.5574C137.074 19.5574 138.123 19.3534 139.052 18.9454L139.39 20.0383C138.334 20.6794 137.165 21 135.883 21C135.207 21 134.658 20.9199 134.236 20.7596C133.827 20.6138 133.532 20.4463 133.348 20.2568C133.179 20.0674 133.032 19.8925 132.905 19.7322C132.778 19.5719 132.672 19.3388 132.588 19.0328C132.518 18.7268 132.461 18.4645 132.419 18.2459C132.377 18.0128 132.349 17.6922 132.334 17.2842C132.292 16.5847 132.271 15.929 132.271 15.3169V14.0055C132.271 13.2332 132.299 12.6794 132.356 12.3443C132.412 12.0091 132.468 11.6958 132.525 11.4044C132.581 11.0984 132.658 10.8725 132.757 10.7268C132.856 10.5665 132.968 10.3843 133.095 10.1803C133.236 9.97632 133.398 9.82332 133.581 9.72131C133.778 9.61931 133.989 9.5173 134.215 9.4153Z" fill="white"/>
<path d="M144.778 20.7377H143.046V5H144.778V20.7377Z" fill="white"/>
<path d="M154.268 17.6776V10.9016C153.493 10.7413 152.768 10.6612 152.092 10.6612C151.43 10.6612 150.979 10.7996 150.74 11.0765C150.515 11.3534 150.402 11.8998 150.402 12.7158V17.6339C150.402 18.3479 150.507 18.8506 150.719 19.1421C150.93 19.4335 151.43 19.5792 152.219 19.5792C153.021 19.5792 153.564 19.4189 153.845 19.0984C154.127 18.7632 154.268 18.2896 154.268 17.6776ZM148.627 15.929C148.627 14.1075 148.656 13.0073 148.712 12.6284C148.768 12.235 148.825 11.8852 148.881 11.5792C148.937 11.2587 149.008 11.0182 149.092 10.8579C149.191 10.6831 149.303 10.4936 149.43 10.2896C149.571 10.0856 149.726 9.9326 149.895 9.8306C150.078 9.7286 150.282 9.62659 150.507 9.52459C150.916 9.34973 151.507 9.26229 152.282 9.26229C153.057 9.26229 153.754 9.35701 154.373 9.54645V5H156V20.7377H155.049L154.775 19.6667C154.507 20.0601 154.155 20.3661 153.718 20.5847C153.296 20.7887 152.93 20.9053 152.62 20.9344C152.324 20.9781 151.958 21 151.521 21C150.338 21 149.557 20.6138 149.177 19.8415C148.81 19.0546 148.627 17.7505 148.627 15.929Z" fill="white"/>
<path d="M48.6262 20.4973C48.2882 20.6284 47.8727 20.745 47.3798 20.847C46.9009 20.949 46.3799 21 45.8165 21C45.2532 21 44.7814 20.9781 44.4011 20.9344C44.035 20.9053 43.704 20.8397 43.4083 20.7377C43.1125 20.6211 42.852 20.5118 42.6266 20.4098C42.4013 20.3078 42.1971 20.133 42.014 19.8852C41.845 19.6375 41.7042 19.4262 41.5915 19.2514C41.4788 19.0765 41.3803 18.7923 41.2958 18.3989C41.2253 18.0055 41.169 17.6776 41.1268 17.4153C41.0845 17.1384 41.0563 16.7158 41.0423 16.1475C41.0141 15.0401 41 13.9982 41 13.0219C41 12.0455 41.007 11.3097 41.0211 10.8142C41.0352 10.3188 41.0634 9.72131 41.1056 9.02186C41.162 8.3224 41.2535 7.82696 41.3803 7.53552C41.507 7.22951 41.676 6.88707 41.8873 6.5082C42.0985 6.11475 42.3731 5.84517 42.7111 5.69945C43.6125 5.34973 44.5631 5.17486 45.563 5.17486C46.5629 5.17486 47.3516 5.28415 47.929 5.50273C48.5205 5.70674 48.9853 5.95446 49.3233 6.2459C49.6613 6.53734 49.9007 7.0765 50.0415 7.86339C50.1965 8.65027 50.288 9.3643 50.3162 10.0055C50.3443 10.6466 50.3584 11.5865 50.3584 12.8251C50.3584 14.0492 50.3514 14.9089 50.3373 15.4044C50.3232 15.8998 50.288 16.4973 50.2317 17.1967C50.1894 17.8962 50.1049 18.3989 49.9782 18.7049C49.8514 18.9964 49.6824 19.3315 49.4712 19.7104C49.2599 20.0893 48.9782 20.3515 48.6262 20.4973ZM48.5205 16.5191V9.65574C48.5205 8.48998 48.4008 7.78324 48.1614 7.53552C47.8093 7.14208 47.422 6.90892 46.9995 6.83607C46.5911 6.76321 46.1545 6.72678 45.6898 6.72678C45.225 6.72678 44.8236 6.75592 44.4856 6.81421C44.1476 6.8725 43.873 6.9745 43.6618 7.12022C43.4646 7.26594 43.3026 7.40437 43.1759 7.53552C43.0632 7.66667 42.9787 7.87067 42.9224 8.14754C42.866 8.49727 42.8379 9 42.8379 9.65574V16.5191C42.8379 17.6849 42.9505 18.3916 43.1759 18.6393C43.5421 19.0328 43.9364 19.2659 44.3589 19.3388C44.7814 19.4117 45.225 19.4481 45.6898 19.4481C46.1545 19.4481 46.5489 19.4189 46.8728 19.3607C47.2108 19.3024 47.4784 19.2004 47.6755 19.0546C47.8868 18.9089 48.0487 18.7705 48.1614 18.6393C48.2882 18.5082 48.3727 18.3042 48.4149 18.0273C48.4853 17.6776 48.5205 17.1749 48.5205 16.5191Z" stroke="white" mask="url(#path-3-outside-1_3_15)"/>
<path d="M61.5394 12.7377V20.7377H59.8071V12.4973C59.8071 11.7832 59.7015 11.2805 59.4902 10.9891C59.279 10.6976 58.772 10.5519 57.9692 10.5519C57.1805 10.5519 56.6454 10.7195 56.3637 11.0546C56.082 11.3752 55.9412 11.8415 55.9412 12.4536V20.7377H54.209V9.37158H55.1596L55.4342 10.4426C55.7018 10.0492 56.0539 9.75045 56.4905 9.54645C56.927 9.32787 57.2862 9.20401 57.5678 9.17486C57.8636 9.14572 58.272 9.13115 58.7931 9.13115C59.3283 9.13115 59.793 9.22587 60.1874 9.4153C60.5817 9.60474 60.8704 9.8816 61.0535 10.2459C61.3774 10.8725 61.5394 11.7031 61.5394 12.7377Z" stroke="white" mask="url(#path-3-outside-1_3_15)"/>
<path d="M67.2242 20.7377H65.4919V5H67.2242V20.7377Z" stroke="white" mask="url(#path-3-outside-1_3_15)"/>
<path d="M71.3904 9.37158H73.1227V20.7377H71.3904V9.37158ZM71.7918 5.08743C71.8904 5.07286 72.0453 5.06557 72.2565 5.06557C72.4678 5.06557 72.6227 5.07286 72.7213 5.08743C72.8199 5.102 72.9255 5.14572 73.0382 5.21858C73.2494 5.32058 73.355 5.57559 73.355 5.98361C73.355 6.37705 73.3339 6.65392 73.2917 6.81421C73.2494 6.95993 73.1649 7.06922 73.0382 7.14208C72.9255 7.20036 72.8199 7.23679 72.7213 7.25137C72.6227 7.26594 72.4678 7.27322 72.2565 7.27322C72.0453 7.27322 71.8904 7.26594 71.7918 7.25137C71.6932 7.23679 71.5876 7.20036 71.4749 7.14208C71.2637 7.0255 71.158 6.77049 71.158 6.37705C71.158 5.96903 71.1792 5.69217 71.2214 5.54645C71.2637 5.38616 71.3411 5.27687 71.4538 5.21858C71.5805 5.14572 71.6932 5.102 71.7918 5.08743Z" stroke="white" mask="url(#path-3-outside-1_3_15)"/>
<path d="M84.6193 12.7377V20.7377H82.8871V12.4973C82.8871 11.7832 82.7815 11.2805 82.5702 10.9891C82.359 10.6976 81.852 10.5519 81.0492 10.5519C80.2605 10.5519 79.7254 10.7195 79.4437 11.0546C79.162 11.3752 79.0212 11.8415 79.0212 12.4536V20.7377H77.2889V9.37158H78.2396L78.5142 10.4426C78.7818 10.0492 79.1339 9.75045 79.5704 9.54645C80.007 9.32787 80.3662 9.20401 80.6478 9.17486C80.9436 9.14572 81.352 9.13115 81.8731 9.13115C82.4082 9.13115 82.873 9.22587 83.2673 9.4153C83.6617 9.60474 83.9504 9.8816 84.1335 10.2459C84.4574 10.8725 84.6193 11.7031 84.6193 12.7377Z" stroke="white" mask="url(#path-3-outside-1_3_15)"/>
<path d="M90.0084 12.4754V14.7268C91.4449 14.7268 92.2969 14.6758 92.5645 14.5738C92.8462 14.4572 93.0926 14.3406 93.3039 14.224C93.6841 14.02 93.8743 13.6193 93.8743 13.0219V12.5191C93.8743 11.8051 93.7686 11.3024 93.5574 11.0109C93.3461 10.7195 92.8391 10.5738 92.0364 10.5738C91.2477 10.5738 90.7125 10.7413 90.4309 11.0765C90.1492 11.3971 90.0084 11.8634 90.0084 12.4754ZM90.1985 9.4153C90.4379 9.29873 90.7125 9.22587 91.0224 9.19672C91.3322 9.15301 91.7688 9.13115 92.3321 9.13115C92.9096 9.13115 93.4447 9.21129 93.9376 9.37158C94.4306 9.53188 94.7897 9.78689 95.015 10.1366C95.2544 10.4718 95.4094 10.8215 95.4798 11.1858C95.5643 11.5355 95.6065 11.9435 95.6065 12.4098C95.6065 12.8616 95.5784 13.2404 95.522 13.5464C95.4657 13.8379 95.3953 14.0929 95.3108 14.3115C95.2404 14.5301 95.1136 14.7268 94.9305 14.9016C94.7615 15.0619 94.5996 15.2004 94.4446 15.3169C94.3038 15.4335 94.0855 15.5355 93.7898 15.623C93.5081 15.6958 93.2616 15.7541 93.0504 15.7978C92.8391 15.8415 92.5363 15.878 92.142 15.9071C91.5505 15.9508 90.8393 15.9727 90.0084 15.9727V17.612C90.0084 18.3698 90.1633 18.8871 90.4731 19.1639C90.783 19.4262 91.2548 19.5574 91.8885 19.5574C93.0574 19.5574 94.1066 19.3534 95.0361 18.9454L95.3741 20.0383C94.3179 20.6794 93.149 21 91.8674 21C91.1914 21 90.6421 20.9199 90.2196 20.7596C89.8112 20.6138 89.5155 20.4463 89.3324 20.2568C89.1634 20.0674 89.0155 19.8925 88.8887 19.7322C88.762 19.5719 88.6564 19.3388 88.5719 19.0328C88.5015 18.7268 88.4451 18.4645 88.4029 18.2459C88.3606 18.0128 88.3325 17.6922 88.3184 17.2842C88.2761 16.5847 88.255 15.929 88.255 15.3169V14.0055C88.255 13.2332 88.2832 12.6794 88.3395 12.3443C88.3958 12.0091 88.4522 11.6958 88.5085 11.4044C88.5648 11.0984 88.6423 10.8725 88.7409 10.7268C88.8395 10.5665 88.9521 10.3843 89.0789 10.1803C89.2197 9.97632 89.3817 9.82332 89.5648 9.72131C89.7619 9.61931 89.9732 9.5173 90.1985 9.4153Z" stroke="white" mask="url(#path-3-outside-1_3_15)"/>
<path d="M111.969 16.5628C111.969 17.9326 111.652 19.0182 111.018 19.8197C110.384 20.6066 109.342 21 107.892 21C106.455 21 105.138 20.7304 103.941 20.1913L104.321 18.8361C105.448 19.2441 106.603 19.4481 107.786 19.4481C108.617 19.4481 109.222 19.2368 109.603 18.8142C109.997 18.3916 110.194 17.7432 110.194 16.8689C110.194 15.9945 110.089 15.3315 109.877 14.8798C109.666 14.4281 109.222 14.1512 108.546 14.0492L106.455 13.7432C105.469 13.5829 104.807 13.1676 104.469 12.4973C104.145 11.827 103.983 10.8142 103.983 9.45902C103.983 8.10382 104.321 7.05464 104.997 6.31148C105.688 5.55373 106.631 5.17486 107.828 5.17486C109.039 5.17486 110.251 5.40801 111.462 5.87432L111.081 7.18579C110.025 6.87978 109.068 6.72678 108.208 6.72678C107.363 6.72678 106.744 6.90892 106.349 7.27322C105.955 7.62295 105.758 8.28597 105.758 9.26229C105.758 10.2386 105.857 10.9381 106.054 11.3607C106.265 11.7832 106.68 12.0383 107.3 12.1257L109.286 12.4317C110.187 12.5774 110.856 12.9636 111.293 13.5902C111.743 14.2022 111.969 15.1931 111.969 16.5628Z" stroke="white" mask="url(#path-3-outside-1_3_15)"/>
<path d="M122.737 12.8689V20.7377H121.005V12.6284C121.005 11.9144 120.899 11.4117 120.688 11.1202C120.477 10.8288 119.97 10.6831 119.167 10.6831C118.378 10.6831 117.843 10.8506 117.561 11.1858C117.28 11.5064 117.139 11.9727 117.139 12.5847V20.7377H115.407V5H117.033V10.3552C117.695 9.62659 118.646 9.26229 119.885 9.26229C121.082 9.26229 121.871 9.63388 122.251 10.377C122.575 11.0036 122.737 11.8342 122.737 12.8689Z" stroke="white" mask="url(#path-3-outside-1_3_15)"/>
<path d="M126.689 9.37158H128.422V20.7377H126.689V9.37158ZM127.091 5.08743C127.189 5.07286 127.344 5.06557 127.556 5.06557C127.767 5.06557 127.922 5.07286 128.02 5.08743C128.119 5.102 128.225 5.14572 128.337 5.21858C128.548 5.32058 128.654 5.57559 128.654 5.98361C128.654 6.37705 128.633 6.65392 128.591 6.81421C128.548 6.95993 128.464 7.06922 128.337 7.14208C128.225 7.20036 128.119 7.23679 128.02 7.25137C127.922 7.26594 127.767 7.27322 127.556 7.27322C127.344 7.27322 127.189 7.26594 127.091 7.25137C126.992 7.23679 126.887 7.20036 126.774 7.14208C126.563 7.0255 126.457 6.77049 126.457 6.37705C126.457 5.96903 126.478 5.69217 126.52 5.54645C126.563 5.38616 126.64 5.27687 126.753 5.21858C126.88 5.14572 126.992 5.102 127.091 5.08743Z" stroke="white" mask="url(#path-3-outside-1_3_15)"/>
<path d="M134.024 12.4754V14.7268C135.461 14.7268 136.313 14.6758 136.581 14.5738C136.862 14.4572 137.109 14.3406 137.32 14.224C137.7 14.02 137.89 13.6193 137.89 13.0219V12.5191C137.89 11.8051 137.785 11.3024 137.573 11.0109C137.362 10.7195 136.855 10.5738 136.052 10.5738C135.264 10.5738 134.729 10.7413 134.447 11.0765C134.165 11.3971 134.024 11.8634 134.024 12.4754ZM134.215 9.4153C134.454 9.29873 134.729 9.22587 135.038 9.19672C135.348 9.15301 135.785 9.13115 136.348 9.13115C136.926 9.13115 137.461 9.21129 137.954 9.37158C138.447 9.53188 138.806 9.78689 139.031 10.1366C139.271 10.4718 139.425 10.8215 139.496 11.1858C139.58 11.5355 139.623 11.9435 139.623 12.4098C139.623 12.8616 139.594 13.2404 139.538 13.5464C139.482 13.8379 139.411 14.0929 139.327 14.3115C139.256 14.5301 139.13 14.7268 138.947 14.9016C138.778 15.0619 138.616 15.2004 138.461 15.3169C138.32 15.4335 138.102 15.5355 137.806 15.623C137.524 15.6958 137.278 15.7541 137.066 15.7978C136.855 15.8415 136.552 15.878 136.158 15.9071C135.567 15.9508 134.855 15.9727 134.024 15.9727V17.612C134.024 18.3698 134.179 18.8871 134.489 19.1639C134.799 19.4262 135.271 19.5574 135.905 19.5574C137.074 19.5574 138.123 19.3534 139.052 18.9454L139.39 20.0383C138.334 20.6794 137.165 21 135.883 21C135.207 21 134.658 20.9199 134.236 20.7596C133.827 20.6138 133.532 20.4463 133.348 20.2568C133.179 20.0674 133.032 19.8925 132.905 19.7322C132.778 19.5719 132.672 19.3388 132.588 19.0328C132.518 18.7268 132.461 18.4645 132.419 18.2459C132.377 18.0128 132.349 17.6922 132.334 17.2842C132.292 16.5847 132.271 15.929 132.271 15.3169V14.0055C132.271 13.2332 132.299 12.6794 132.356 12.3443C132.412 12.0091 132.468 11.6958 132.525 11.4044C132.581 11.0984 132.658 10.8725 132.757 10.7268C132.856 10.5665 132.968 10.3843 133.095 10.1803C133.236 9.97632 133.398 9.82332 133.581 9.72131C133.778 9.61931 133.989 9.5173 134.215 9.4153Z" stroke="white" mask="url(#path-3-outside-1_3_15)"/>
<path d="M144.778 20.7377H143.046V5H144.778V20.7377Z" stroke="white" mask="url(#path-3-outside-1_3_15)"/>
<path d="M154.268 17.6776V10.9016C153.493 10.7413 152.768 10.6612 152.092 10.6612C151.43 10.6612 150.979 10.7996 150.74 11.0765C150.515 11.3534 150.402 11.8998 150.402 12.7158V17.6339C150.402 18.3479 150.507 18.8506 150.719 19.1421C150.93 19.4335 151.43 19.5792 152.219 19.5792C153.021 19.5792 153.564 19.4189 153.845 19.0984C154.127 18.7632 154.268 18.2896 154.268 17.6776ZM148.627 15.929C148.627 14.1075 148.656 13.0073 148.712 12.6284C148.768 12.235 148.825 11.8852 148.881 11.5792C148.937 11.2587 149.008 11.0182 149.092 10.8579C149.191 10.6831 149.303 10.4936 149.43 10.2896C149.571 10.0856 149.726 9.9326 149.895 9.8306C150.078 9.7286 150.282 9.62659 150.507 9.52459C150.916 9.34973 151.507 9.26229 152.282 9.26229C153.057 9.26229 153.754 9.35701 154.373 9.54645V5H156V20.7377H155.049L154.775 19.6667C154.507 20.0601 154.155 20.3661 153.718 20.5847C153.296 20.7887 152.93 20.9053 152.62 20.9344C152.324 20.9781 151.958 21 151.521 21C150.338 21 149.557 20.6138 149.177 19.8415C148.81 19.0546 148.627 17.7505 148.627 15.929Z" stroke="white" mask="url(#path-3-outside-1_3_15)"/>
<defs>
<radialGradient id="paint0_radial_3_15" cx="0" cy="0" r="1" gradientUnits="userSpaceOnUse" gradientTransform="translate(12.5 12.5) rotate(90) scale(12.5 15.4822)">
<stop stop-color="#00AD9E"/>
<stop offset="1" stop-color="#222E3A" stop-opacity="0.96"/>
</radialGradient>
</defs>
</svg>
