<svg width="12" height="14" viewBox="0 0 12 14" fill="none" xmlns="http://www.w3.org/2000/svg">
<path d="M10.2 8.16667C10.6774 8.16667 11.1352 8.35104 11.4728 8.67923C11.8104 9.00742 12 9.45254 12 9.91667V10.3337C12 12.4203 9.474 14 6 14C2.526 14 0 12.5026 0 10.3337V9.91667C0 9.45254 0.189642 9.00742 0.527208 8.67923C0.864773 8.35104 1.32261 8.16667 1.8 8.16667H10.2ZM6 0C6.47276 -6.84897e-09 6.94089 0.0905301 7.37766 0.266422C7.81443 0.442313 8.21129 0.700121 8.54559 1.02513C8.87988 1.35013 9.14505 1.73597 9.32597 2.16061C9.50688 2.58525 9.6 3.04037 9.6 3.5C9.6 3.95963 9.50688 4.41475 9.32597 4.83939C9.14505 5.26403 8.87988 5.64987 8.54559 5.97487C8.21129 6.29988 7.81443 6.55769 7.37766 6.73358C6.94089 6.90947 6.47276 7 6 7C5.04522 7 4.12955 6.63125 3.45442 5.97487C2.77928 5.3185 2.4 4.42826 2.4 3.5C2.4 2.57174 2.77928 1.6815 3.45442 1.02513C4.12955 0.368749 5.04522 1.38321e-08 6 0Z" fill="#317A72"/>
</svg>
