<svg width="65" height="65" viewBox="0 0 65 65" fill="none" xmlns="http://www.w3.org/2000/svg">
<circle cx="32.5" cy="32.5" r="32.5" fill="#00AD9E"/>
<path d="M26.8046 40.8199L19.5556 33.3691C19.165 32.9676 18.6352 32.7421 18.0828 32.7421C17.5304 32.7421 17.0007 32.9676 16.61 33.3691C16.2194 33.7706 16 34.3151 16 34.8829C16 35.164 16.0539 35.4424 16.1585 35.7021C16.2632 35.9619 16.4166 36.1979 16.61 36.3967L25.3423 45.3719C26.157 46.2094 27.4731 46.2094 28.2878 45.3719L50.39 22.6546C50.7806 22.2531 51 21.7086 51 21.1408C51 20.573 50.7806 20.0285 50.39 19.627C49.9994 19.2255 49.4696 19 48.9172 19C48.3648 19 47.835 19.2255 47.4444 19.627L26.8046 40.8199Z" fill="white"/>
</svg>
