<svg width="140" height="24" viewBox="0 0 140 24" fill="none" xmlns="http://www.w3.org/2000/svg">
<path d="M12 20.0993L17.8198 23.7824C18.8856 24.4574 20.1898 23.4595 19.9094 22.1976L18.3667 15.2716L23.5134 10.6054C24.453 9.75433 23.9482 8.14023 22.7141 8.03751L15.9407 7.43589L13.2902 0.891426C12.8134 -0.297142 11.1866 -0.297142 10.7098 0.891426L8.05935 7.42122L1.28591 8.02284C0.051828 8.12555 -0.453025 9.73966 0.486562 10.5907L5.63325 15.257L4.09065 22.1829C3.81017 23.4449 5.11437 24.4427 6.18017 23.7677L12 20.0993Z" fill="#F89F44"/>
<path d="M41 20.0993L46.8198 23.7824C47.8856 24.4574 49.1898 23.4595 48.9094 22.1976L47.3667 15.2716L52.5134 10.6054C53.453 9.75433 52.9482 8.14023 51.7141 8.03751L44.9407 7.43589L42.2902 0.891426C41.8134 -0.297142 40.1866 -0.297142 39.7098 0.891426L37.0593 7.42122L30.2859 8.02284C29.0518 8.12555 28.547 9.73966 29.4866 10.5907L34.6333 15.257L33.0906 22.1829C32.8102 23.4449 34.1144 24.4427 35.1802 23.7677L41 20.0993Z" fill="#F89F44"/>
<path d="M70 20.0993L75.8198 23.7824C76.8856 24.4574 78.1898 23.4595 77.9094 22.1976L76.3667 15.2716L81.5134 10.6054C82.453 9.75433 81.9482 8.14023 80.7141 8.03751L73.9407 7.43589L71.2902 0.891426C70.8134 -0.297142 69.1866 -0.297142 68.7098 0.891426L66.0593 7.42122L59.2859 8.02284C58.0518 8.12555 57.547 9.73966 58.4866 10.5907L63.6333 15.257L62.0906 22.1829C61.8102 23.4449 63.1144 24.4427 64.1802 23.7677L70 20.0993Z" fill="#F89F44"/>
<path d="M99 20.0993L104.82 23.7824C105.886 24.4574 107.19 23.4595 106.909 22.1976L105.367 15.2716L110.513 10.6054C111.453 9.75433 110.948 8.14023 109.714 8.03751L102.941 7.43589L100.29 0.891426C99.8134 -0.297142 98.1866 -0.297142 97.7098 0.891426L95.0593 7.42122L88.2859 8.02284C87.0518 8.12555 86.547 9.73966 87.4866 10.5907L92.6333 15.257L91.0906 22.1829C90.8102 23.4449 92.1144 24.4427 93.1802 23.7677L99 20.0993Z" fill="#F89F44"/>
<path d="M128 20.0993L133.82 23.7824C134.886 24.4574 136.19 23.4595 135.909 22.1976L134.367 15.2716L139.513 10.6054C140.453 9.75433 139.948 8.14023 138.714 8.03751L131.941 7.43589L129.29 0.891426C128.813 -0.297142 127.187 -0.297142 126.71 0.891426L124.059 7.42122L117.286 8.02284C116.052 8.12555 115.547 9.73966 116.487 10.5907L121.633 15.257L120.091 22.1829C119.81 23.4449 121.114 24.4427 122.18 23.7677L128 20.0993Z" fill="#F89F44"/>
</svg>
